# File created by Blade
# Date/Time:  Thu Jan 15 19:03:44 2015
#---------------------------------------------------------
:version 1.10
:name HOM
:units
  mass 1.0
  length 1.000000
  angle deg
:documentation
     Acclaim Skeleton File
:root
   axis xyz
   order TX TY TZ RX RY RZ
   position 0.000000 0.000000 0.000000
   orientation 0 0 0
:bonedata
   begin
      id 1
      name Spine_dum
      direction 0.000000 1.000000 0.000000
      length 4.354460
      axis 0.0 0.0 0.0 xyz
   end
   begin
      id 2
      name LeftUpLeg_dum
      direction 1.000000 0.000000 0.000000
      length 4.291077
      axis 0.0 0.0 0.0 xyz
   end
   begin
      id 3
      name RightUpLeg_dum
      direction -1.000000 0.000000 0.000000
      length 4.291077
      axis 0.0 0.0 0.0 xyz
   end
   begin
      id 4
      name Spine
      direction 0.000000 1.000000 0.000000
      length 0.000000
      axis 0.0 0.0 0.0 xyz
      dof rx ry rz
   end
   begin
      id 5
      name Spine_dum1
      direction 0.000000 1.000000 0.000000
      length 16.581769
      axis 0.0 0.0 0.0 xyz
   end
   begin
      id 6
      name Spine_dum2
      direction 0.000000 1.000000 0.000000
      length 12.903700
      axis 0.0 0.0 0.0 xyz
   end
   begin
      id 7
      name Spine_dum3
      direction 0.000000 1.000000 0.000000
      length 12.903700
      axis 0.0 0.0 0.0 xyz
   end
   begin
      id 8
      name Head
      direction 0.000000 1.000000 0.000000
      length 4.527550
      axis 0.0 0.0 0.0 xyz
      dof rx ry rz
   end
   begin
      id 9
      name LeftShoulder
      direction 1.000000 0.000000 0.000000
      length 6.942033
      axis 0.0 0.0 -90.0 xyz
      dof rx ry rz
   end
   begin
      id 10
      name LeftArm
      direction 1.000000 0.000000 0.000000
      length 11.010391
      axis 0.0 0.0 -90.0 xyz
      dof rx ry rz
   end
   begin
      id 11
      name LeftForeArm
      direction 1.000000 0.000000 0.000000
      length 8.054994
      axis 0.0 0.0 -90.0 xyz
      dof rz ry rx
   end
   begin
      id 12
      name LeftHand
      direction 0.000000 0.000000 0.000000
      length 0.000000
      axis 0.0 0.0 -90.0 xyz
      dof rx ry rz
   end
   begin
      id 13
      name LeftHand_dum1
      direction 0.000000 0.000000 0.000000
      length 0.000000
      axis 0.0 0.0 -90.0 xyz
   end
   begin
      id 14
      name LeftHand_dum2
      direction 1.000000 0.000000 0.000000
      length 3.937000
      axis 0.0 0.0 -90.0 xyz
   end
   begin
      id 15
      name LeftHandThumb1
      direction 0.000000 0.000000 1.000000
      length 3.937000
      axis 0.0 0.0 -90.0 xyz
      dof rx ry rz
   end
   begin
      id 16
      name RightShoulder
      direction -1.000000 0.000000 0.000000
      length 6.942033
      axis 0.0 0.0 90.0 xyz
      dof rx ry rz
   end
   begin
      id 17
      name RightArm
      direction -1.000000 0.000000 0.000000
      length 11.010391
      axis 0.0 0.0 90.0 xyz
      dof rx ry rz
   end
   begin
      id 18
      name RightForeArm
      direction -1.000000 0.000000 0.000000
      length 8.054994
      axis 0.0 0.0 90.0 xyz
      dof rz ry rx
   end
   begin
      id 19
      name RightHand
      direction 0.000000 0.000000 0.000000
      length 0.000000
      axis 0.0 0.0 90.0 xyz
      dof rx ry rz
   end
   begin
      id 20
      name RightHand_dum1
      direction 0.000000 0.000000 0.000000
      length 0.000000
      axis 0.0 0.0 90.0 xyz
   end
   begin
      id 21
      name RightHand_dum2
      direction -1.000000 0.000000 0.000000
      length 3.937000
      axis 0.0 0.0 90.0 xyz
   end
   begin
      id 22
      name RightHandThumb1
      direction 0.000000 0.000000 1.000000
      length 3.937000
      axis 0.0 0.0 90.0 xyz
      dof rx ry rz
   end
   begin
      id 23
      name LeftUpLeg
      direction 0.000000 -1.000000 0.000000
      length 17.039958
      axis 0.0 0.0 0.0 xyz
      dof rx ry rz
   end
   begin
      id 24
      name LeftLeg
      direction 0.000000 -1.000000 0.000000
      length 16.939743
      axis 0.0 0.0 0.0 xyz
      dof rx ry rz
   end
   begin
      id 25
      name LeftFoot
      direction 0.000000 -0.258819 0.965926
      length 5.235044
      axis 15.0 0.0 0.0 xyz
      dof rx ry rz
   end
   begin
      id 26
      name LeftToeBase
      direction 0.000000 0.000000 1.000000
      length 2.952750
      axis 0.0 0.0 0.0 xyz
      dof rx ry rz
   end
   begin
      id 27
      name RightUpLeg
      direction 0.000000 -1.000000 0.000000
      length 17.039958
      axis 0.0 0.0 0.0 xyz
      dof rx ry rz
   end
   begin
      id 28
      name RightLeg
      direction 0.000000 -1.000000 0.000000
      length 16.939743
      axis 0.0 0.0 0.0 xyz
      dof rx ry rz
   end
   begin
      id 29
      name RightFoot
      direction 0.000000 -0.258819 0.965926
      length 5.235044
      axis 15.0 0.0 0.0 xyz
      dof rx ry rz
   end
   begin
      id 30
      name RightToeBase
      direction 0.000000 0.000000 1.000000
      length 2.952750
      axis 0.0 0.0 0.0 xyz
      dof rx ry rz
   end
:hierarchy
   begin
      root Spine_dum LeftUpLeg_dum RightUpLeg_dum
      Spine_dum Spine
      LeftUpLeg_dum LeftUpLeg
      RightUpLeg_dum RightUpLeg
      Spine Spine_dum1 Spine_dum2 Spine_dum3
      Spine_dum1 Head
      Spine_dum2 LeftShoulder
      Spine_dum3 RightShoulder
      LeftShoulder LeftArm
      LeftArm LeftForeArm
      LeftForeArm LeftHand
      LeftHand LeftHand_dum1 LeftHand_dum2
      LeftHand_dum1 LeftHandThumb1
      RightShoulder RightArm
      RightArm RightForeArm
      RightForeArm RightHand
      RightHand RightHand_dum1 RightHand_dum2
      RightHand_dum1 RightHandThumb1
      LeftUpLeg LeftLeg
      LeftLeg LeftFoot
      LeftFoot LeftToeBase
      RightUpLeg RightLeg
      RightLeg RightFoot
      RightFoot RightToeBase
   end

# File created by Blade
# Date/Time:  Thu Jan 15 19:03:33 2015
# Frame Rate: 120.000 fps
#------------------------------------------------------
:FULLY-SPECIFIED
:DEGREES
777
root 2.913091 35.679632 -11.609107 -170.616609 43.824840 -173.473331
Spine -8.133068 -23.880966 1.868524
Head 0.976932 -14.108559 19.441104
LeftShoulder -3.264635 9.340042 15.881970
LeftArm 24.396835 -31.399846 -26.342686
LeftForeArm 0.000000 21.133435 14.901346
LeftHand 8.643851 -0.000000 6.161448
LeftHandThumb1 -26.253704 33.147579 0.000000
RightShoulder -27.518649 -2.921214 -16.212910
RightArm -21.607470 36.428521 15.846204
RightForeArm -0.000000 -53.358573 35.095025
RightHand 7.946633 0.000000 -7.373951
RightHandThumb1 -24.326973 -32.862282 -0.000000
LeftUpLeg 6.612408 34.098838 -0.057275
LeftLeg -4.557988 -0.000000 0.000000
LeftFoot -24.385495 36.359891 -18.663634
LeftToeBase 19.024406 -0.000000 -0.000000
RightUpLeg -6.255661 13.358383 1.007991
RightLeg 0.345243 -0.000000 -0.000000
RightFoot -8.851257 -2.042557 12.159953
RightToeBase 21.462414 -0.000000 -0.000000
778
root 2.920365 35.680787 -11.619205 -170.560428 43.190125 -173.531766
Spine -8.238481 -23.489238 1.911566
Head 0.897370 -13.968476 19.366509
LeftShoulder -3.331618 9.385003 15.864399
LeftArm 24.504483 -31.540701 -26.399210
LeftForeArm -0.000000 21.034700 14.631140
LeftHand 8.576247 0.000000 6.027461
LeftHandThumb1 -26.253704 33.147579 0.000000
RightShoulder -27.454588 -2.846992 -16.217891
RightArm -21.401385 36.367312 15.899996
RightForeArm 0.000000 -53.365558 35.071135
RightHand 7.746098 0.000000 -7.192126
RightHandThumb1 -24.326973 -32.862282 -0.000000
LeftUpLeg 6.543483 33.791108 -0.071012
LeftLeg -4.769907 -0.000000 0.000000
LeftFoot -24.144877 36.159046 -18.466816
LeftToeBase 19.025328 -0.000000 -0.000000
RightUpLeg -6.230397 12.745809 1.072019
RightLeg 0.280043 -0.000000 -0.000000
RightFoot -8.928591 -2.136637 12.153352
RightToeBase 21.595588 -0.000000 -0.000000
779
root 2.932784 35.681010 -11.631094 -170.510662 42.552896 -173.577976
Spine -8.346419 -23.095656 1.952649
Head 0.864708 -13.766449 19.299948
LeftShoulder -3.376740 9.379734 15.824059
LeftArm 24.444675 -31.450162 -26.237151
LeftForeArm -0.000000 20.731854 14.420236
LeftHand 8.522464 -0.000000 5.843170
LeftHandThumb1 -26.253704 33.147579 0.000000
RightShoulder -27.343719 -2.825221 -16.209051
RightArm -21.221615 36.372792 15.936094
RightForeArm -0.000000 -53.398572 34.995304
RightHand 7.778412 -0.000000 -7.013636
RightHandThumb1 -24.326973 -32.862282 -0.000000
LeftUpLeg 6.507065 33.508475 -0.051594
LeftLeg -4.986407 -0.000000 0.000000
LeftFoot -23.905274 35.924434 -18.270541
LeftToeBase 19.041220 -0.000000 -0.000000
RightUpLeg -6.172446 12.154154 1.152414
RightLeg 0.193258 -0.000000 -0.000000
RightFoot -9.001115 -2.231042 12.143421
RightToeBase 21.563044 -0.000000 -0.000000
780
root 2.941914 35.680596 -11.641227 -170.457513 41.881186 -173.632642
Spine -8.453993 -22.686208 1.984545
Head 0.801216 -13.569781 19.244642
LeftShoulder -3.366221 9.326484 15.811348
LeftArm 24.421092 -31.524686 -26.201519
LeftForeArm -0.000000 20.669884 14.221144
LeftHand 8.416104 -0.000000 5.604102
LeftHandThumb1 -26.253704 33.147579 0.000000
RightShoulder -27.268438 -2.800777 -16.203280
RightArm -21.018585 36.343459 16.002201
RightForeArm -0.000000 -53.323317 34.883570
RightHand 7.069135 -0.000000 -7.403006
RightHandThumb1 -24.326973 -32.862282 -0.000000
LeftUpLeg 6.419721 33.170348 -0.049471
LeftLeg -5.148339 -0.000000 0.000000
LeftFoot -23.699499 35.720484 -18.075158
LeftToeBase 19.020766 -0.000000 -0.000000
RightUpLeg -6.121151 11.585883 1.220639
RightLeg 0.097832 -0.000000 -0.000000
RightFoot -9.097345 -2.354504 12.137024
RightToeBase 21.608683 -0.000000 -0.000000
781
root 2.950318 35.681235 -11.651082 -170.416182 41.204456 -173.703471
Spine -8.551955 -22.288633 2.003592
Head 0.733547 -13.374915 19.161367
LeftShoulder -3.382419 9.298070 15.758801
LeftArm 24.353434 -31.492389 -26.049307
LeftForeArm -0.000000 20.570145 14.042009
LeftHand 8.380884 -0.000000 5.575831
LeftHandThumb1 -26.253704 33.147579 0.000000
RightShoulder -27.220670 -2.779971 -16.201116
RightArm -20.720427 36.608163 16.084143
RightForeArm -0.000000 -53.605183 34.722796
RightHand 6.858674 -0.000000 -7.100737
RightHandThumb1 -24.326973 -32.862282 -0.000000
LeftUpLeg 6.327544 32.888331 -0.055121
LeftLeg -5.305960 -0.000000 0.000000
LeftFoot -23.463113 35.472736 -17.846009
LeftToeBase 19.048714 -0.000000 -0.000000
RightUpLeg -6.081550 10.989830 1.278005
RightLeg 0.026359 -0.000000 -0.000000
RightFoot -9.188956 -2.450512 12.119851
RightToeBase 21.567414 -0.000000 -0.000000
782
root 2.959312 35.681595 -11.661193 -170.398319 40.535166 -173.788510
Spine -8.630045 -21.860316 1.995580
Head 0.668595 -13.128322 19.082848
LeftShoulder -3.387859 9.270890 15.726413
LeftArm 24.369426 -31.639238 -26.029894
LeftForeArm 0.000000 20.682432 13.831908
LeftHand 8.378867 0.000000 5.363805
LeftHandThumb1 -26.253704 33.147579 0.000000
RightShoulder -27.175462 -2.800773 -16.161331
RightArm -20.421947 36.634148 16.229319
RightForeArm -0.000000 -53.576097 34.655209
RightHand 6.971622 0.000000 -6.700607
RightHandThumb1 -24.326973 -32.862282 -0.000000
LeftUpLeg 6.232650 32.551689 -0.064833
LeftLeg -5.416810 -0.000000 0.000000
LeftFoot -23.285163 35.248137 -17.687774
LeftToeBase 19.061162 -0.000000 -0.000000
RightUpLeg -6.033424 10.436785 1.316709
RightLeg -0.033785 -0.000000 0.000000
RightFoot -9.296110 -2.537770 12.124236
RightToeBase 21.536251 -0.000000 -0.000000
783
root 2.964548 35.681742 -11.667373 -170.378415 39.866105 -173.888693
Spine -8.695741 -21.455838 1.972615
Head 0.584516 -12.807884 19.026897
LeftShoulder -3.444543 9.251505 15.668562
LeftArm 24.325232 -31.599947 -25.871769
LeftForeArm -0.000000 20.496778 13.632823
LeftHand 8.437240 0.000000 5.530142
LeftHandThumb1 -26.253704 33.147579 0.000000
RightShoulder -27.056464 -2.625751 -16.214166
RightArm -20.300065 36.478988 16.296381
RightForeArm -0.000000 -53.414954 34.532603
RightHand 6.523817 -0.000000 -7.552466
RightHandThumb1 -24.326973 -32.862282 -0.000000
LeftUpLeg 6.097419 32.234073 -0.101516
LeftLeg -5.500700 -0.000000 0.000000
LeftFoot -23.105074 35.026371 -17.506321
LeftToeBase 19.080132 -0.000000 -0.000000
RightUpLeg -6.019563 9.911043 1.332964
RightLeg -0.066769 -0.000000 0.000000
RightFoot -9.415560 -2.634263 12.101290
RightToeBase 21.521791 -0.000000 -0.000000
784
root 2.970949 35.682336 -11.675451 -170.399881 39.171872 -174.001564
Spine -8.738184 -21.051263 1.930656
Head 0.539095 -12.530853 18.920929
LeftShoulder -3.443084 9.219340 15.596498
LeftArm 24.303543 -31.766253 -25.790709
LeftForeArm -0.000000 20.670932 13.468314
LeftHand 8.332750 -0.000000 5.449627
LeftHandThumb1 -26.253704 33.147579 0.000000
RightShoulder -26.962108 -2.576848 -16.195541
RightArm -20.082005 36.501069 16.374022
RightForeArm 0.000000 -53.361980 34.476268
RightHand 6.590123 0.000000 -6.986843
RightHandThumb1 -24.326973 -32.862282 -0.000000
LeftUpLeg 5.991386 31.884769 -0.124012
LeftLeg -5.566395 -0.000000 0.000000
LeftFoot -22.949660 34.812129 -17.359259
LeftToeBase 19.106146 -0.000000 -0.000000
RightUpLeg -5.967874 9.358771 1.347057
RightLeg -0.095092 -0.000000 0.000000
RightFoot -9.544859 -2.723068 12.072080
RightToeBase 21.500323 -0.000000 -0.000000
785
root 2.982120 35.682942 -11.685038 -170.408693 38.558528 -174.084249
Spine -8.760217 -20.575538 1.888884
Head 0.462776 -12.111350 18.840932
LeftShoulder -3.508992 9.251873 15.551604
LeftArm 24.272102 -31.876241 -25.739994
LeftForeArm -0.000000 20.702027 13.417572
LeftHand 8.260796 -0.000000 5.562647
LeftHandThumb1 -26.253704 33.147579 0.000000
RightShoulder -26.893000 -2.528819 -16.209779
RightArm -19.799807 36.562502 16.558022
RightForeArm -0.000000 -53.259375 34.372748
RightHand 6.440177 -0.000000 -7.229588
RightHandThumb1 -24.326973 -32.862282 -0.000000
LeftUpLeg 5.912979 31.661998 -0.112119
LeftLeg -5.621392 -0.000000 0.000000
LeftFoot -22.787375 34.533922 -17.201387
LeftToeBase 19.126948 -0.000000 -0.000000
RightUpLeg -5.918644 8.929636 1.370494
RightLeg -0.105240 -0.000000 0.000000
RightFoot -9.674273 -2.832645 12.071459
RightToeBase 21.504055 -0.000000 -0.000000
786
root 2.990351 35.683540 -11.691366 -170.415823 37.856811 -174.185714
Spine -8.800523 -20.168477 1.849306
Head 0.390426 -11.769485 18.736061
LeftShoulder -3.521926 9.269959 15.504018
LeftArm 24.249039 -32.102578 -25.745181
LeftForeArm 0.000000 20.785961 13.362322
LeftHand 8.198638 -0.000000 5.583321
LeftHandThumb1 -26.253704 33.147579 0.000000
RightShoulder -26.826542 -2.465758 -16.242200
RightArm -19.510881 36.576163 16.758497
RightForeArm 0.000000 -53.195423 34.246090
RightHand 6.445200 0.000000 -7.488965
RightHandThumb1 -24.326973 -32.862282 -0.000000
LeftUpLeg 5.776052 31.326790 -0.122954
LeftLeg -5.636069 -0.000000 0.000000
LeftFoot -22.618171 34.295772 -17.006989
LeftToeBase 19.113371 -0.000000 -0.000000
RightUpLeg -5.869645 8.488655 1.379133
RightLeg -0.141049 -0.000000 0.000000
RightFoot -9.812335 -2.983402 12.126022
RightToeBase 21.386041 -0.000000 -0.000000
787
root 2.999880 35.684031 -11.699197 -170.470778 37.149290 -174.291962
Spine -8.769426 -19.768883 1.791003
Head 0.267327 -11.323621 18.637409
LeftShoulder -3.542410 9.241044 15.395835
LeftArm 23.951953 -31.967650 -25.380139
LeftForeArm -0.000000 20.481043 13.460490
LeftHand 8.222827 -0.000000 5.485263
LeftHandThumb1 -26.253704 33.147579 0.000000
RightShoulder -26.760326 -2.383887 -16.268226
RightArm -19.214674 36.555366 16.961588
RightForeArm -0.000000 -53.208557 34.095466
RightHand 6.468588 0.000000 -7.601025
RightHandThumb1 -24.326973 -32.862282 -0.000000
LeftUpLeg 5.681030 30.987318 -0.111012
LeftLeg -5.622813 -0.000000 0.000000
LeftFoot -22.480389 34.042901 -16.843698
LeftToeBase 19.114199 -0.000000 -0.000000
RightUpLeg -5.760672 8.070322 1.387038
RightLeg -0.194750 -0.000000 0.000000
RightFoot -9.960253 -3.177160 12.135220
RightToeBase 21.342050 -0.000000 -0.000000
788
root 3.006459 35.684556 -11.706785 -170.506655 36.465183 -174.402147
Spine -8.761706 -19.297236 1.728437
Head 0.143604 -10.980290 18.513074
LeftShoulder -3.604733 9.209970 15.325560
LeftArm 24.001962 -32.138539 -25.379208
LeftForeArm 0.000000 20.605654 13.337234
LeftHand 8.431920 -0.000000 5.479984
LeftHandThumb1 -26.253704 33.147579 0.000000
RightShoulder -26.732645 -2.313613 -16.256465
RightArm -18.864373 36.469741 17.148990
RightForeArm -0.000000 -53.243166 33.994350
RightHand 6.506069 0.000000 -7.193948
RightHandThumb1 -24.326973 -32.862282 -0.000000
LeftUpLeg 5.543333 30.649907 -0.126197
LeftLeg -5.580305 -0.000000 0.000000
LeftFoot -22.358933 33.825732 -16.677917
LeftToeBase 19.132472 -0.000000 -0.000000
RightUpLeg -5.691849 7.694889 1.373143
RightLeg -0.222803 -0.000000 0.000000
RightFoot -10.102100 -3.358967 12.147385
RightToeBase 21.132807 -0.000000 -0.000000
